<?xml version='1.0' encoding='UTF-8'?>
<svg width="74mm" height="74mm" version="1.1" viewBox="0 0 74 74" xmlns="http://www.w3.org/2000/svg"><path d="M4,4H6V6H4zM6,4H8V6H6zM8,4H10V6H8zM10,4H12V6H10zM12,4H14V6H12zM14,4H16V6H14zM16,4H18V6H16zM22,4H24V6H22zM26,4H28V6H26zM28,4H30V6H28zM30,4H32V6H30zM32,4H34V6H32zM36,4H38V6H36zM40,4H42V6H40zM42,4H44V6H42zM44,4H46V6H44zM46,4H48V6H46zM48,4H50V6H48zM52,4H54V6H52zM56,4H58V6H56zM58,4H60V6H58zM60,4H62V6H60zM62,4H64V6H62zM64,4H66V6H64zM66,4H68V6H66zM68,4H70V6H68zM4,6H6V8H4zM16,6H18V8H16zM22,6H24V8H22zM24,6H26V8H24zM26,6H28V8H26zM28,6H30V8H28zM30,6H32V8H30zM40,6H42V8H40zM44,6H46V8H44zM48,6H50V8H48zM52,6H54V8H52zM56,6H58V8H56zM68,6H70V8H68zM4,8H6V10H4zM8,8H10V10H8zM10,8H12V10H10zM12,8H14V10H12zM16,8H18V10H16zM20,8H22V10H20zM22,8H24V10H22zM24,8H26V10H24zM26,8H28V10H26zM32,8H34V10H32zM34,8H36V10H34zM36,8H38V10H36zM42,8H44V10H42zM44,8H46V10H44zM46,8H48V10H46zM48,8H50V10H48zM50,8H52V10H50zM52,8H54V10H52zM56,8H58V10H56zM60,8H62V10H60zM62,8H64V10H62zM64,8H66V10H64zM68,8H70V10H68zM4,10H6V12H4zM8,10H10V12H8zM10,10H12V12H10zM12,10H14V12H12zM16,10H18V12H16zM20,10H22V12H20zM22,10H24V12H22zM24,10H26V12H24zM28,10H30V12H28zM34,10H36V12H34zM38,10H40V12H38zM40,10H42V12H40zM42,10H44V12H42zM44,10H46V12H44zM46,10H48V12H46zM48,10H50V12H48zM50,10H52V12H50zM56,10H58V12H56zM60,10H62V12H60zM62,10H64V12H62zM64,10H66V12H64zM68,10H70V12H68zM4,12H6V14H4zM8,12H10V14H8zM10,12H12V14H10zM12,12H14V14H12zM16,12H18V14H16zM30,12H32V14H30zM32,12H34V14H32zM34,12H36V14H34zM36,12H38V14H36zM38,12H40V14H38zM40,12H42V14H40zM42,12H44V14H42zM44,12H46V14H44zM50,12H52V14H50zM52,12H54V14H52zM56,12H58V14H56zM60,12H62V14H60zM62,12H64V14H62zM64,12H66V14H64zM68,12H70V14H68zM4,14H6V16H4zM16,14H18V16H16zM24,14H26V16H24zM26,14H28V16H26zM28,14H30V16H28zM30,14H32V16H30zM36,14H38V16H36zM38,14H40V16H38zM44,14H46V16H44zM48,14H50V16H48zM50,14H52V16H50zM56,14H58V16H56zM68,14H70V16H68zM4,16H6V18H4zM6,16H8V18H6zM8,16H10V18H8zM10,16H12V18H10zM12,16H14V18H12zM14,16H16V18H14zM16,16H18V18H16zM20,16H22V18H20zM24,16H26V18H24zM28,16H30V18H28zM32,16H34V18H32zM36,16H38V18H36zM40,16H42V18H40zM44,16H46V18H44zM48,16H50V18H48zM52,16H54V18H52zM56,16H58V18H56zM58,16H60V18H58zM60,16H62V18H60zM62,16H64V18H62zM64,16H66V18H64zM66,16H68V18H66zM68,16H70V18H68zM24,18H26V20H24zM26,18H28V20H26zM28,18H30V20H28zM38,18H40V20H38zM42,18H44V20H42zM48,18H50V20H48zM52,18H54V20H52zM10,20H12V22H10zM12,20H14V22H12zM16,20H18V22H16zM18,20H20V22H18zM22,20H24V22H22zM32,20H34V22H32zM34,20H36V22H34zM40,20H42V22H40zM52,20H54V22H52zM62,20H64V22H62zM64,20H66V22H64zM4,22H6V24H4zM10,22H12V24H10zM14,22H16V24H14zM20,22H22V24H20zM26,22H28V24H26zM28,22H30V24H28zM30,22H32V24H30zM32,22H34V24H32zM36,22H38V24H36zM38,22H40V24H38zM42,22H44V24H42zM46,22H48V24H46zM48,22H50V24H48zM50,22H52V24H50zM54,22H56V24H54zM58,22H60V24H58zM60,22H62V24H60zM64,22H66V24H64zM6,24H8V26H6zM8,24H10V26H8zM16,24H18V26H16zM18,24H20V26H18zM20,24H22V26H20zM22,24H24V26H22zM24,24H26V26H24zM26,24H28V26H26zM28,24H30V26H28zM32,24H34V26H32zM34,24H36V26H34zM42,24H44V26H42zM48,24H50V26H48zM50,24H52V26H50zM54,24H56V26H54zM58,24H60V26H58zM62,24H64V26H62zM66,24H68V26H66zM68,24H70V26H68zM6,26H8V28H6zM10,26H12V28H10zM14,26H16V28H14zM18,26H20V28H18zM24,26H26V28H24zM26,26H28V28H26zM28,26H30V28H28zM38,26H40V28H38zM40,26H42V28H40zM46,26H48V28H46zM48,26H50V28H48zM56,26H58V28H56zM58,26H60V28H58zM60,26H62V28H60zM62,26H64V28H62zM64,26H66V28H64zM6,28H8V30H6zM8,28H10V30H8zM12,28H14V30H12zM16,28H18V30H16zM18,28H20V30H18zM22,28H24V30H22zM32,28H34V30H32zM36,28H38V30H36zM40,28H42V30H40zM42,28H44V30H42zM46,28H48V30H46zM50,28H52V30H50zM56,28H58V30H56zM58,28H60V30H58zM60,28H62V30H60zM62,28H64V30H62zM12,30H14V32H12zM14,30H16V32H14zM20,30H22V32H20zM22,30H24V32H22zM40,30H42V32H40zM42,30H44V32H42zM44,30H46V32H44zM46,30H48V32H46zM50,30H52V32H50zM54,30H56V32H54zM58,30H60V32H58zM60,30H62V32H60zM62,30H64V32H62zM64,30H66V32H64zM66,30H68V32H66zM4,32H6V34H4zM6,32H8V34H6zM12,32H14V34H12zM14,32H16V34H14zM16,32H18V34H16zM18,32H20V34H18zM22,32H24V34H22zM26,32H28V34H26zM28,32H30V34H28zM30,32H32V34H30zM34,32H36V34H34zM52,32H54V34H52zM54,32H56V34H54zM58,32H60V34H58zM62,32H64V34H62zM64,32H66V34H64zM4,34H6V36H4zM6,34H8V36H6zM8,34H10V36H8zM10,34H12V36H10zM12,34H14V36H12zM14,34H16V36H14zM20,34H22V36H20zM22,34H24V36H22zM32,34H34V36H32zM34,34H36V36H34zM42,34H44V36H42zM50,34H52V36H50zM54,34H56V36H54zM56,34H58V36H56zM58,34H60V36H58zM64,34H66V36H64zM68,34H70V36H68zM12,36H14V38H12zM16,36H18V38H16zM18,36H20V38H18zM20,36H22V38H20zM22,36H24V38H22zM44,36H46V38H44zM50,36H52V38H50zM54,36H56V38H54zM56,36H58V38H56zM58,36H60V38H58zM60,36H62V38H60zM62,36H64V38H62zM66,36H68V38H66zM4,38H6V40H4zM8,38H10V40H8zM10,38H12V40H10zM12,38H14V40H12zM14,38H16V40H14zM18,38H20V40H18zM22,38H24V40H22zM24,38H26V40H24zM28,38H30V40H28zM34,38H36V40H34zM36,38H38V40H36zM42,38H44V40H42zM44,38H46V40H44zM46,38H48V40H46zM48,38H50V40H48zM52,38H54V40H52zM56,38H58V40H56zM58,38H60V40H58zM60,38H62V40H60zM62,38H64V40H62zM68,38H70V40H68zM6,40H8V42H6zM10,40H12V42H10zM14,40H16V42H14zM16,40H18V42H16zM22,40H24V42H22zM24,40H26V42H24zM26,40H28V42H26zM30,40H32V42H30zM32,40H34V42H32zM36,40H38V42H36zM38,40H40V42H38zM50,40H52V42H50zM54,40H56V42H54zM56,40H58V42H56zM58,40H60V42H58zM60,40H62V42H60zM62,40H64V42H62zM64,40H66V42H64zM68,40H70V42H68zM4,42H6V44H4zM8,42H10V44H8zM10,42H12V44H10zM14,42H16V44H14zM18,42H20V44H18zM20,42H22V44H20zM26,42H28V44H26zM28,42H30V44H28zM30,42H32V44H30zM32,42H34V44H32zM34,42H36V44H34zM42,42H44V44H42zM44,42H46V44H44zM50,42H52V44H50zM52,42H54V44H52zM56,42H58V44H56zM58,42H60V44H58zM62,42H64V44H62zM64,42H66V44H64zM66,42H68V44H66zM68,42H70V44H68zM4,44H6V46H4zM6,44H8V46H6zM8,44H10V46H8zM10,44H12V46H10zM12,44H14V46H12zM16,44H18V46H16zM20,44H22V46H20zM24,44H26V46H24zM26,44H28V46H26zM32,44H34V46H32zM40,44H42V46H40zM44,44H46V46H44zM52,44H54V46H52zM54,44H56V46H54zM58,44H60V46H58zM62,44H64V46H62zM68,44H70V46H68zM4,46H6V48H4zM6,46H8V48H6zM10,46H12V48H10zM14,46H16V48H14zM20,46H22V48H20zM22,46H24V48H22zM28,46H30V48H28zM30,46H32V48H30zM34,46H36V48H34zM40,46H42V48H40zM44,46H46V48H44zM48,46H50V48H48zM54,46H56V48H54zM56,46H58V48H56zM58,46H60V48H58zM60,46H62V48H60zM62,46H64V48H62zM64,46H66V48H64zM66,46H68V48H66zM4,48H6V50H4zM8,48H10V50H8zM14,48H16V50H14zM16,48H18V50H16zM18,48H20V50H18zM20,48H22V50H20zM22,48H24V50H22zM26,48H28V50H26zM30,48H32V50H30zM34,48H36V50H34zM40,48H42V50H40zM52,48H54V50H52zM56,48H58V50H56zM60,48H62V50H60zM64,48H66V50H64zM66,48H68V50H66zM68,48H70V50H68zM4,50H6V52H4zM8,50H10V52H8zM10,50H12V52H10zM12,50H14V52H12zM14,50H16V52H14zM18,50H20V52H18zM26,50H28V52H26zM30,50H32V52H30zM32,50H34V52H32zM38,50H40V52H38zM44,50H46V52H44zM48,50H50V52H48zM58,50H60V52H58zM64,50H66V52H64zM68,50H70V52H68zM4,52H6V54H4zM6,52H8V54H6zM10,52H12V54H10zM12,52H14V54H12zM14,52H16V54H14zM16,52H18V54H16zM20,52H22V54H20zM22,52H24V54H22zM26,52H28V54H26zM28,52H30V54H28zM32,52H34V54H32zM40,52H42V54H40zM52,52H54V54H52zM54,52H56V54H54zM56,52H58V54H56zM58,52H60V54H58zM60,52H62V54H60zM62,52H64V54H62zM68,52H70V54H68zM20,54H22V56H20zM22,54H24V56H22zM26,54H28V56H26zM36,54H38V56H36zM40,54H42V56H40zM44,54H46V56H44zM52,54H54V56H52zM60,54H62V56H60zM62,54H64V56H62zM66,54H68V56H66zM4,56H6V58H4zM6,56H8V58H6zM8,56H10V58H8zM10,56H12V58H10zM12,56H14V58H12zM14,56H16V58H14zM16,56H18V58H16zM20,56H22V58H20zM26,56H28V58H26zM34,56H36V58H34zM40,56H42V58H40zM46,56H48V58H46zM48,56H50V58H48zM50,56H52V58H50zM52,56H54V58H52zM56,56H58V58H56zM60,56H62V58H60zM62,56H64V58H62zM4,58H6V60H4zM16,58H18V60H16zM22,58H24V60H22zM24,58H26V60H24zM30,58H32V60H30zM32,58H34V60H32zM34,58H36V60H34zM38,58H40V60H38zM44,58H46V60H44zM50,58H52V60H50zM52,58H54V60H52zM60,58H62V60H60zM62,58H64V60H62zM64,58H66V60H64zM66,58H68V60H66zM4,60H6V62H4zM8,60H10V62H8zM10,60H12V62H10zM12,60H14V62H12zM16,60H18V62H16zM20,60H22V62H20zM22,60H24V62H22zM24,60H26V62H24zM26,60H28V62H26zM36,60H38V62H36zM40,60H42V62H40zM46,60H48V62H46zM50,60H52V62H50zM52,60H54V62H52zM54,60H56V62H54zM56,60H58V62H56zM58,60H60V62H58zM60,60H62V62H60zM66,60H68V62H66zM4,62H6V64H4zM8,62H10V64H8zM10,62H12V64H10zM12,62H14V64H12zM16,62H18V64H16zM20,62H22V64H20zM24,62H26V64H24zM26,62H28V64H26zM30,62H32V64H30zM36,62H38V64H36zM38,62H40V64H38zM40,62H42V64H40zM42,62H44V64H42zM46,62H48V64H46zM50,62H52V64H50zM54,62H56V64H54zM58,62H60V64H58zM66,62H68V64H66zM4,64H6V66H4zM8,64H10V66H8zM10,64H12V66H10zM12,64H14V66H12zM16,64H18V66H16zM22,64H24V66H22zM28,64H30V66H28zM30,64H32V66H30zM32,64H34V66H32zM38,64H40V66H38zM42,64H44V66H42zM44,64H46V66H44zM48,64H50V66H48zM60,64H62V66H60zM66,64H68V66H66zM68,64H70V66H68zM4,66H6V68H4zM16,66H18V68H16zM22,66H24V68H22zM24,66H26V68H24zM26,66H28V68H26zM28,66H30V68H28zM36,66H38V68H36zM40,66H42V68H40zM48,66H50V68H48zM50,66H52V68H50zM56,66H58V68H56zM64,66H66V68H64zM66,66H68V68H66zM68,66H70V68H68zM4,68H6V70H4zM6,68H8V70H6zM8,68H10V70H8zM10,68H12V70H10zM12,68H14V70H12zM14,68H16V70H14zM16,68H18V70H16zM22,68H24V70H22zM26,68H28V70H26zM28,68H30V70H28zM32,68H34V70H32zM34,68H36V70H34zM36,68H38V70H36zM40,68H42V70H40zM42,68H44V70H42zM50,68H52V70H50zM52,68H54V70H52zM54,68H56V70H54zM56,68H58V70H56zM60,68H62V70H60zM64,68H66V70H64z" id="qr-path" fill="#000000" fill-opacity="1" fill-rule="nonzero" stroke="none"/></svg>