<svg xmlns="http://www.w3.org/2000/svg" width="1280" height="720" viewBox="0 0 1280 720" fill="none">
  <rect width="1280" height="720" rx="28" fill="#F4EEDF"/>
  <rect x="28" y="28" width="1224" height="72" rx="18" fill="#FFFFFF"/>
  <text x="72" y="72" fill="#2B2F33" font-family="Inter, Arial, sans-serif" font-size="28" font-weight="700">Tangible</text>
  <text x="248" y="72" fill="#6E675D" font-family="Inter, Arial, sans-serif" font-size="22">Ma bibliothèque</text>
  <text x="468" y="72" fill="#6E675D" font-family="Inter, Arial, sans-serif" font-size="22">Store</text>
  <text x="566" y="72" fill="#6E675D" font-family="Inter, Arial, sans-serif" font-size="22">Collections</text>
  <rect x="1050" y="44" width="156" height="40" rx="20" fill="#F6D6C7"/>
  <text x="1090" y="70" fill="#A44B22" font-family="Inter, Arial, sans-serif" font-size="18" font-weight="600">Leon</text>

  <rect x="54" y="138" width="1172" height="166" rx="28" fill="#2B2F33"/>
  <text x="92" y="194" fill="#E6733C" font-family="Inter, Arial, sans-serif" font-size="24" font-weight="700">CONTINUER</text>
  <text x="92" y="236" fill="#FBF8F1" font-family="Fraunces, Georgia, serif" font-size="46" font-weight="700">Votre collection, même hors ligne.</text>
  <text x="92" y="274" fill="#D0CCC0" font-family="Inter, Arial, sans-serif" font-size="22">127 films chiffrés localement · 1.4 TB · lecture instantanée</text>
  <rect x="950" y="182" width="220" height="78" rx="20" fill="#E6733C"/>
  <text x="996" y="230" fill="#FBF8F1" font-family="Inter, Arial, sans-serif" font-size="24" font-weight="700">Lancer Dune</text>

  <text x="54" y="364" fill="#2B2F33" font-family="Inter, Arial, sans-serif" font-size="30" font-weight="700">Ma collection</text>
  <rect x="1040" y="336" width="186" height="44" rx="22" fill="#FFFFFF"/>
  <text x="1084" y="364" fill="#6E675D" font-family="Inter, Arial, sans-serif" font-size="20" font-weight="600">Filtres</text>

  <rect x="54" y="402" width="212" height="244" rx="26" fill="#FFFFFF"/>
  <rect x="74" y="422" width="172" height="136" rx="18" fill="#D6A368"/>
  <text x="100" y="500" fill="#FBF8F1" font-family="Fraunces, Georgia, serif" font-size="36" font-style="italic" font-weight="700">Dune</text>
  <text x="78" y="592" fill="#2B2F33" font-family="Inter, Arial, sans-serif" font-size="24" font-weight="700">Dune: Part Two</text>
  <text x="78" y="622" fill="#6E675D" font-family="Inter, Arial, sans-serif" font-size="18">2024 · 4K HDR</text>

  <rect x="286" y="402" width="212" height="244" rx="26" fill="#FFFFFF"/>
  <rect x="306" y="422" width="172" height="136" rx="18" fill="#4D525A"/>
  <text x="326" y="500" fill="#FBF8F1" font-family="Fraunces, Georgia, serif" font-size="28" font-style="italic" font-weight="700">Oppenheimer</text>
  <text x="310" y="592" fill="#2B2F33" font-family="Inter, Arial, sans-serif" font-size="24" font-weight="700">Oppenheimer</text>
  <text x="310" y="622" fill="#6E675D" font-family="Inter, Arial, sans-serif" font-size="18">2023 · HD</text>

  <rect x="518" y="402" width="212" height="244" rx="26" fill="#FFFFFF"/>
  <rect x="538" y="422" width="172" height="136" rx="18" fill="#8D6A9F"/>
  <text x="562" y="500" fill="#FBF8F1" font-family="Fraunces, Georgia, serif" font-size="28" font-style="italic" font-weight="700">Amelie</text>
  <text x="542" y="592" fill="#2B2F33" font-family="Inter, Arial, sans-serif" font-size="24" font-weight="700">Le Fabuleux Destin</text>
  <text x="542" y="622" fill="#6E675D" font-family="Inter, Arial, sans-serif" font-size="18">2001 · 4K</text>

  <rect x="750" y="402" width="212" height="244" rx="26" fill="#FFFFFF"/>
  <rect x="770" y="422" width="172" height="136" rx="18" fill="#3B6E78"/>
  <text x="798" y="500" fill="#FBF8F1" font-family="Fraunces, Georgia, serif" font-size="28" font-style="italic" font-weight="700">Her</text>
  <text x="774" y="592" fill="#2B2F33" font-family="Inter, Arial, sans-serif" font-size="24" font-weight="700">Her</text>
  <text x="774" y="622" fill="#6E675D" font-family="Inter, Arial, sans-serif" font-size="18">2013 · HD</text>

  <rect x="982" y="402" width="244" height="244" rx="26" fill="#FFFFFF"/>
  <text x="1018" y="454" fill="#2B2F33" font-family="Inter, Arial, sans-serif" font-size="24" font-weight="700">État local</text>
  <rect x="1018" y="482" width="168" height="10" rx="5" fill="#ECE5D6"/>
  <rect x="1018" y="482" width="136" height="10" rx="5" fill="#E6733C"/>
  <text x="1018" y="530" fill="#6E675D" font-family="Inter, Arial, sans-serif" font-size="18">AES-256 actif</text>
  <text x="1018" y="566" fill="#6E675D" font-family="Inter, Arial, sans-serif" font-size="18">4 profils synchronisés</text>
  <text x="1018" y="602" fill="#6E675D" font-family="Inter, Arial, sans-serif" font-size="18">0 dépendance cloud</text>
  <rect x="1018" y="618" width="158" height="18" rx="9" fill="#EAF4ED"/>
  <text x="1046" y="632" fill="#3AA574" font-family="Inter, Arial, sans-serif" font-size="14" font-weight="700">HORS LIGNE</text>
</svg>