<?xml version="1.0" encoding="utf-8" ?><svg xmlns="http://www.w3.org/2000/svg" xmlns:xlink="http://www.w3.org/1999/xlink" viewBox="180 360 680 315"><path fill="#FBF8F1" d="M292.854 396.729C310.661 396.145 328.135 401.644 342.4 412.318C358.557 424.316 370.895 443.763 373.59 463.748C374.866 473.213 375.805 488.797 369.812 496.49C366.545 500.772 361.631 503.486 356.268 503.973C353.064 504.291 349.829 503.921 346.779 502.888C340.744 500.79 313.289 483.214 307.747 478.745C307.074 475.21 306.992 473.15 305.135 469.855C300.559 461.739 292.187 460.912 286.553 468.467C283.565 472.474 281.669 478.008 275.268 475.349C270.547 473.663 270.849 466.589 273.12 463.029C286.902 441.419 314.461 448.165 320.903 470.825C325.877 474.457 347.914 489.692 352.347 490.187C354.318 490.406 356.364 489.947 357.89 488.637C360.292 486.574 360.878 483.165 361.044 480.168C361.976 463.378 355.663 445.295 344.404 432.855C332.705 419.93 316.15 411.314 298.637 410.474C281.303 409.762 264.413 416.066 251.784 427.961C238.766 439.999 231.112 456.768 231.023 474.518C230.9 499.008 231.047 523.515 230.932 548.006C230.892 556.637 230.952 566.266 233.091 574.621C239.838 600.968 264.333 621.732 291.582 622.626C322.351 623.782 347.971 605.812 357.383 576.064C359.685 568.789 358.849 555.192 364.06 549.858C380.749 532.772 403.664 546.948 400.164 569.508C397.459 590.752 391.392 606.336 378.104 622.983C374.608 627.363 368.417 633.647 362.873 629.245C361.237 627.9 360.281 623.666 361.199 621.647C362.922 618.222 366.814 615.853 368.768 612.395C379.335 598.251 385.741 582.873 386.923 565.111C387.534 555.929 379.004 552.339 374.006 559.728C373.009 561.201 372.731 570.77 372.199 573.557C369.733 586.473 362.792 599.71 354.23 609.646C340.834 625.17 321.848 634.773 301.405 636.365C256.827 639.46 220.291 606.859 217.822 562.419C216.976 547.18 217.925 531.589 217.954 516.307L217.88 485.514C217.833 475.703 216.969 466.562 219.393 456.952C228.249 421.844 257.351 399.003 292.854 396.729Z"/><path fill="#FBF8F1" d="M291.781 370.219C294.888 370.035 297.802 370.159 300.9 370.311C328.83 371.659 355.072 384.084 373.815 404.835C396.367 429.939 402.518 459.36 400.505 492.136C400.153 498.352 398.398 504.406 395.371 509.846C382.98 532.632 363.529 526.974 351.139 546.312C347.022 552.716 347.044 560.018 345.946 567.228C339.546 609.231 284.169 624.893 256.927 592.473C251.294 585.807 247.397 577.852 245.584 569.316C243.974 561.734 244.387 551.873 244.399 543.95L244.417 515.3C244.382 500.418 243.367 482.763 244.614 468.185C247.002 440.255 274.467 420.898 301.033 423.675C314.734 425.129 327.28 432.016 335.861 442.796C339.228 447.03 349.255 460.902 342.11 465.838C340.065 467.25 336.92 466.797 334.607 466.28C329.566 461.858 328.497 450.96 317.937 444.404C308.249 438.389 300.203 435.439 288.508 437.753C278.696 439.641 270.043 445.361 264.462 453.649C261.205 458.606 259.099 464.229 258.3 470.106C257.179 478.218 257.886 499.597 257.903 508.661L257.879 541.665C257.87 549.385 257.521 559.919 259.12 567.284C261.141 576.791 266.864 585.102 275.024 590.381C283.31 595.78 293.431 597.589 303.073 595.392C317.117 592.198 329.324 581.071 332.106 567.047C335.053 552.194 333.819 543.974 344.999 531.846C348.394 528.118 352.344 524.937 356.711 522.415C374.599 512.213 385.637 512.808 387.08 487.273C389.249 448.865 375.894 416.891 341.215 396.336C318.983 383 292.012 380.114 267.461 388.445C262.633 390.089 258.208 392.016 253.749 394.454C250.941 395.99 246.043 398.578 243.102 396.14C230.82 385.958 254.433 378.618 261.155 375.852C270.658 372.037 281.584 370.826 291.781 370.219Z"/><path fill="#E6733C" d="M279.376 479.523C288.491 478.974 301.114 490.578 309.451 495.266C314.714 498.226 323.506 503.809 328.27 507.495C346.487 521.591 322.644 532.347 311.825 538.667C307.409 541.156 303.075 543.905 298.651 546.371C289.358 551.552 279.09 560.066 271.562 547.705C270.995 539.08 271.414 526.567 271.364 517.662C271.307 507.286 270.888 494.637 271.596 484.58C274.366 481.727 275.638 480.806 279.376 479.523ZM284.022 540.738C291.694 536.013 299.419 531.376 307.196 526.828C311.09 524.479 318.886 520.279 322.24 517.898C308.986 510.265 296.29 500.954 283.903 493.835L284.022 540.738Z"/><path fill="#FBF8F1" d="M194.795 550.54C197.522 550.302 202.601 550.287 203.418 553.555C204.624 558.379 204.457 564.027 205.054 568.986C207.114 585.568 213.596 601.29 223.821 614.506C248.619 646.304 292.828 658.601 330.057 642.715C334.506 640.816 341.338 638.296 344.244 644.407C346.031 648.164 343.173 650.976 340.241 652.932C321.649 662.93 297.59 665.216 276.994 661.533C249.679 656.404 225.422 640.869 209.337 618.204C199.134 603.391 192.856 586.232 191.091 568.333C190.486 562.121 189.069 554.447 194.795 550.54Z"/><path fill="#FBF8F1" d="M625.825 489.121C626.717 489.043 627.613 489.009 628.508 489.02C636.508 489.194 640.151 491.613 645.369 497.165C645.632 494.703 645.733 492.261 645.865 489.789L650.535 489.621C650.614 504.829 651.674 520.48 649.293 535.453C646.802 551.114 615.661 550.231 610.894 540.604C610.898 538.704 610.642 539.547 611.653 537.972C613.429 537.494 612.58 537.447 614.289 538.108C621.453 543.039 634.406 545.444 641.191 538.703C645.461 534.461 645.34 528.909 645.171 523.35C636.97 530.308 625.312 532.59 616.116 526.081C611.699 522.985 608.739 518.218 607.923 512.886C605.868 500.004 613.494 491.307 625.825 489.121ZM632.354 525.238C641.01 523.626 646.72 515.304 645.111 506.648C643.501 497.992 635.18 492.279 626.524 493.887C617.865 495.495 612.15 503.819 613.76 512.478C615.37 521.137 623.696 526.85 632.354 525.238Z"/><path fill="#FBF8F1" d="M217.646 407.926C233.09 409.191 221.048 423.478 217.259 429.153C197.286 459.062 206.696 496.09 203.458 529.517C203.323 530.909 200.276 532.578 199.184 533.101C193.348 532.926 191.19 530.941 190.978 524.836C190.941 519.484 190.835 513.977 191.022 508.627C191.516 494.405 190.272 479.414 191.397 465.274C191.892 458.851 193.044 452.497 194.836 446.31C197.98 435.415 207.355 413.632 217.646 407.926Z"/><path fill="#FBF8F1" d="M709.136 472.484C711.065 472.52 712.581 472.298 714.156 473.307C714.779 475.325 714.554 493.678 714.551 497.227C718.235 492.787 722.652 490.193 728.388 489.523C749.623 487.045 759.509 511.146 745.933 526.364C740.142 531.608 733.178 533.564 725.578 531.619C720.911 530.424 718.493 527.547 714.709 525.041C713.697 526.366 715.064 528.381 714.076 531.231C712.164 532.226 711.908 531.823 709.406 531.765L709.136 472.484ZM731.737 526.977C740.719 526.312 747.468 518.503 746.823 509.52C746.178 500.537 738.384 493.771 729.399 494.395C720.387 495.022 713.595 502.847 714.241 511.858C714.888 520.869 722.728 527.644 731.737 526.977Z"/><path fill="#FBF8F1" d="M822.137 489.265C837.668 489.874 840.697 499.497 842.669 512.427L805.779 512.632C809.696 525.476 817.786 529.924 830.881 525.758C833.276 524.191 836.096 521.682 838.672 524.064C838.91 529.117 830.563 531.433 826.483 532.028C805.015 535.158 793.221 512.293 806.133 495.842C810.056 490.844 815.818 489.685 822.137 489.265ZM806.205 508.474L825.75 508.5L837.234 508.455C833.927 498.133 830.237 492.749 818.3 494.073C810.474 496.403 807.991 500.752 806.205 508.474Z"/><path fill="#FBF8F1" d="M499.258 489.622C519.015 487.716 522.434 497.336 521.286 514.968C521.054 518.532 522.287 529.742 520.769 531.786C518.952 531.802 518.36 531.904 516.596 531.336C515.684 529.845 516.026 528.251 516.023 526.247C507.728 533.573 495.9 535.089 487.878 526.538C486.695 524.146 486.092 521.688 486.093 519.022C486.102 505.517 508.085 507.921 516.44 508.005C515.25 494.122 507.432 491.495 494.449 495.887C493.121 496.336 491.54 498.229 489.505 499.052C488.429 498.636 488.661 498.896 488.326 498.11C485.815 492.219 496.449 490.172 499.258 489.622ZM498.476 527.408C506.813 528.532 511.339 527.417 516.004 520.033L516.028 511.869L510.507 511.742C505.673 511.894 496.308 511.606 493.219 515.044C488.749 520.02 493.139 525.881 498.476 527.408Z"/><path fill="#FBF8F1" d="M310.374 554.605C315.45 553.963 320.148 554.959 319.963 561.385C319.614 573.458 306.509 584.205 294.665 583.579C286.853 583.166 281.723 580.09 276.393 574.621C273.131 570.567 268.509 561.039 273.847 557.656C284.499 551.47 284.246 568.489 292.854 569.565C305.501 571.146 303.984 558.982 310.374 554.605Z"/><path fill="#FBF8F1" d="M553.018 496.755C558.804 490.395 564.387 488.605 572.958 489.692C590.552 491.924 586.463 517.96 586.478 531.738L581.158 531.707C580.957 523.303 581.026 514.568 580.977 506.137C579.464 499.102 576.634 494.032 568.215 493.821C544.58 493.229 557.359 526.201 551.849 531.966C549.772 532.162 548.03 530.332 548.121 528.918C548.477 523.375 546.927 492.627 548.537 489.749C550.126 489.672 550.643 489.567 552.216 489.98C553.625 491.908 553.091 494.075 553.018 496.755Z"/><path fill="#FBF8F1" d="M454.707 480.117L455.361 480.326C455.931 482.094 455.853 487.787 455.887 489.928C460.268 489.856 464.359 489.348 468.251 491.36L468.424 492.368C465.387 494.538 459.609 494.119 455.828 494.106C455.958 500.027 455.552 506.432 455.645 512.374C455.888 528.016 456.058 527.151 469.546 526.544C471.07 527.463 470.682 527.475 471.575 529.475C464.108 533.487 452.317 534.091 451.079 522.99C450.066 513.918 450.877 503.79 450.446 494.398C447.016 494.337 445.107 494.829 442.703 492.504L442.721 491.632C445.14 489.377 447.144 489.896 450.518 489.917C450.489 487.041 449.829 483.48 450.87 481.198C452.456 479.881 452.178 480.309 454.707 480.117Z"/><path fill="#FBF8F1" d="M773.807 472.551C775.89 472.565 776.394 472.535 778.391 472.984C779.267 474.437 779.109 525.875 778.791 531.525C776.893 531.514 776.365 531.493 774.501 531.211C773.493 529.644 773.991 478.986 773.807 472.551Z"/><path fill="#FBF8F1" d="M677.332 489.594L682.477 489.822C682.76 503.633 682.759 517.449 682.476 531.26L681.863 531.666C680.259 531.769 678.939 532.095 677.657 531.268C677.125 528.724 677.153 526.141 677.168 523.552C677.235 512.237 676.909 500.903 677.332 489.594Z"/><path fill="#FBF8F1" d="M678.102 472.281C680.106 471.306 682.522 472.122 683.523 474.113C684.525 476.105 683.741 478.531 681.763 479.559C680.46 480.236 678.894 480.16 677.663 479.359C676.432 478.559 675.727 477.158 675.818 475.692C675.909 474.227 676.781 472.923 678.102 472.281Z"/></svg>