<?xml version="1.0" encoding="utf-8" ?><svg xmlns="http://www.w3.org/2000/svg" xmlns:xlink="http://www.w3.org/1999/xlink" viewBox="340 270 335 470"><path fill="#FBF8F1" d="M501.808 315.228C506.885 315.15 511.852 315.059 516.927 315.429C548.38 317.961 577.589 332.717 598.288 356.534C617.415 378.79 627.617 403.195 628.715 432.678C629.316 448.853 631.397 463.895 617.531 475.577C611.1 481.08 602.729 483.771 594.296 483.047C587.86 482.463 578.824 478.512 573.827 474.691C561.405 465.192 536.226 453.72 526.721 442.4C525.477 432.191 522.748 423.219 511.395 419.945C508.305 419.051 505.021 419.084 501.949 420.039C490.577 423.5 492.715 432.618 484.73 438.246C481.219 440.722 472.03 438.305 470.995 433.556C467.917 419.438 482.653 405.192 494.773 400.94C504.362 397.594 514.895 398.249 523.995 402.757C537.05 409.242 542.393 419.109 546.678 432.158C555.012 438.331 587.665 460.072 595.992 462.739C604.422 460.838 608.26 458.418 608.656 449.269C609.892 420.676 602.792 393.542 584.156 371.732C566.539 350.96 541.393 338.036 514.249 335.801C459.32 331.547 409.381 377.254 406.75 431.882C406.342 440.358 406.445 448.685 406.464 457.164L406.503 496.941L406.496 543.391C406.499 559.853 405.857 576.9 409.436 593.011C412.815 608.56 420.047 623.01 430.467 635.035C448.935 656.19 472.886 669.347 501.124 671.249C547.811 674.848 591.756 641.092 603.832 596.733C607.558 583.044 605.214 566.342 614.67 555.463C625.854 542.595 647.201 540.079 659.566 552.754C666.416 559.511 670.258 568.293 670.035 577.755C669.132 615.945 652.501 652.374 626.583 680.086C624.423 682.399 621.478 684.1 618.335 684.002C615.506 683.909 612.829 682.694 610.898 680.625C602.024 671.133 617.303 660.417 622.682 652.829C638.699 630.232 649.206 604.49 649.552 576.495C649.708 563.856 634.239 561.271 628.484 571.09C627.555 573.62 627.268 577.441 627.116 580.054C625.58 606.544 614.803 630.528 597.358 650.858C576.525 674.706 547.181 689.447 515.613 691.924C484.025 694.062 452.883 683.561 429.039 662.732C379.315 619.474 386.97 575.355 386.921 517.094L386.775 455.388C386.877 438.015 385.753 426.511 389.87 408.89C394.363 390.058 403.421 372.619 416.243 358.112C439.086 332.125 467.053 317.342 501.808 315.228Z"/><path fill="#FBF8F1" d="M506.461 273.212C542.339 271.897 582.297 287.31 609.878 309.994C643.791 337.41 665.241 377.322 669.392 420.733C670.654 434.297 670.762 456.426 669.526 469.724C667.168 495.096 647.242 515.705 624.478 524.931C612.953 529.603 600.124 537.888 593.554 548.883C586.381 559.612 587.257 570.962 585.375 582.944C579.851 618.127 549.541 647.087 514.36 650.104C493.463 651.967 472.683 645.449 456.594 631.985C440.045 618.073 429.831 598.055 428.277 576.491C427.651 568.438 427.941 559.156 427.991 550.993L428.009 516.138L428.011 461.782C428.032 449.367 427.53 430.949 430.028 419.376C432.891 406.692 438.83 394.907 447.321 385.06C461.75 368.293 479.996 358.768 502.031 357.125C522.769 355.583 543.263 362.394 558.953 376.042C569.902 385.524 575.294 394.001 581.616 406.709C588.958 421.468 574.991 430.454 565.8 421.075C564.221 418.769 562.513 414.642 561.213 412.019C550.646 390.701 527.185 376.005 503.306 377.832C487.208 379.087 472.286 386.747 461.883 399.095C447.013 416.797 447.981 434.071 448.051 455.539L448.123 491.846L448.096 542.342C448.092 552.567 447.779 565.682 448.724 575.66C450.173 591.589 457.949 606.271 470.31 616.419C482.258 626.199 497.608 630.821 512.969 629.263C540.297 626.393 562.517 603.617 565.949 576.679C566.78 570.156 566.991 563.574 568.456 557.159C570.879 546.632 575.917 536.887 583.104 528.823C589.446 521.678 597.037 515.742 605.487 511.302C617.963 504.746 630.728 500.807 639.858 489.236C643.761 484.22 646.575 478.446 648.122 472.281C651.015 460.56 649.978 429.804 648.407 417.488C643.531 380.336 624.066 346.653 594.31 323.879C552.24 291.525 499.503 284.808 451.147 305.871C445.354 308.395 439.469 312.793 433.342 314.063C428.616 315.043 421.828 309.17 421.602 304.4C421.316 295.835 433.738 291.397 440.005 288.462C451.708 282.982 463.429 279.01 476.09 276.512C486.28 274.501 496.125 273.755 506.461 273.212Z"/><path fill="#E9763C" d="M481.789 446.539C486.355 446.347 490.669 446.322 494.726 448.844C512.505 459.897 530.091 471.35 547.668 482.732C552.124 485.617 557.424 488.845 561.565 492.064C562.991 493.167 564.227 494.495 565.225 495.996C567.877 499.915 568.635 504.922 567.619 509.529C565.48 519.226 555.908 523.825 548.146 528.41C542.808 531.562 537.499 534.66 532.25 537.919C523.887 542.81 515.693 548.009 507.406 553.031C503.031 555.683 498.574 558.701 493.882 560.757C489.338 562.748 484.178 563.897 479.415 561.919C475.583 560.327 472.789 557.189 471.299 553.35C469.828 549.557 470.146 470.564 470.62 461.064C470.743 458.614 470.84 455.669 471.957 453.454C473.874 449.654 478.026 447.927 481.789 446.539ZM489.35 541.575C500.871 534.304 513.559 527.04 525.369 520.134C530.925 516.867 544.245 509.222 548.73 505.398C528.664 493.091 509.24 479.744 489.231 467.41C489.824 476.252 489.464 488.227 489.462 497.247C489.535 512.023 489.497 526.8 489.35 541.575Z"/><path fill="#FBF8F1" d="M352.47 557.579C365.861 555.838 365.193 565.479 365.468 574.9C368.272 671.026 467.878 739.388 558.226 704.007C565.384 701.204 576.583 693.727 581.871 703.453C583.186 705.876 583.482 708.722 582.692 711.363C581.351 715.826 578.615 717.355 574.835 719.315C539.448 735.197 503.492 738.207 465.972 728.274C424.312 716.933 388.814 689.604 367.196 652.229C353.833 629.335 342.462 592.77 345.76 564.787C346.16 561.391 349.55 559.114 352.47 557.579Z"/><path fill="#FBF8F1" d="M385.863 332.581C386.721 332.489 387.584 332.436 388.447 332.421C394.113 332.316 399.04 336.494 399.227 342.254C399.384 347.103 395.615 350.579 392.875 354.124C383.505 366.249 376.634 380.316 371.969 394.876C364.009 418.545 365.497 442.127 365.502 466.713L365.446 523.204C363.144 527.169 362.395 527.539 358.521 529.679C344.17 530.876 345.005 519.959 345.143 509.368C345.292 497.825 344.841 486.066 345.131 474.54C345.567 457.203 344.244 439.037 345.85 421.792C346.833 411.778 348.756 401.879 351.593 392.225C356.116 376.933 372.179 340.024 385.863 332.581Z"/><path fill="#FBF8F1" d="M531.58 563.641C535.632 563.184 540.608 563.479 542.903 567.126C549.399 577.942 538.78 593.471 530.337 600.043C514.255 612.561 490.523 610.952 477.776 594.201C477.129 593.495 476.516 592.759 475.939 591.995C472.174 587.043 469.244 580.85 470.42 574.495C470.893 571.957 472.447 569.751 474.678 568.45C491.971 558.138 488.853 595.293 512.07 586.645C527.791 580.79 521.007 569.884 531.008 563.972L531.58 563.641Z"/><path fill="#020102" fill-opacity="0.011764706" d="M590.429 617.589C591.162 617.176 590.716 617.36 591.814 617.167L592.063 618.391L591.378 618.533L590.429 617.589Z"/></svg>