<?xml version="1.0" encoding="utf-8" ?><svg xmlns="http://www.w3.org/2000/svg" xmlns:xlink="http://www.w3.org/1999/xlink" width="1024" height="1024" viewBox="0 0 1024 1024"><path fill="#2C3236" d="M502.348 280.212C515.773 279.2 531.115 281.29 543.871 285.366C575.26 295.346 601.301 317.558 616.105 346.981C625.171 364.794 628.231 383.376 628.838 403.133C629.049 410.016 629.357 416.802 627.12 423.425C624.488 431.22 618.879 437.972 611.435 441.597C604.404 445.021 595.441 445.939 588.012 443.362C579.86 440.534 534.483 413.047 529.283 406.564C526.305 402.851 526.663 397.045 524.482 392.778C522.065 388.048 517.457 384.82 512.418 383.363C496.255 378.689 494.077 397.249 485.43 401.595C483.659 402.485 481.743 402.773 479.843 402.125C477.292 401.253 474.591 398.75 473.509 396.289C471.911 392.657 472.788 388.678 474.251 385.165C478.03 376.092 487.356 367.556 496.494 364.097C505.239 360.787 516.191 361.772 524.578 365.639C537.337 371.522 543.321 382.217 547.875 394.87C558.654 401.7 585.905 421.61 595.952 424.751C602.657 422.916 607.844 421.238 608.513 413.103C613.011 358.355 576.065 307.902 519.794 301.313C494.254 298.529 468.645 305.904 448.498 321.845C427.883 338.353 413.185 362.757 410.52 389.151C409.673 397.537 409.889 406.375 409.881 414.837L409.862 451.543L409.852 501.703C409.848 517.856 409.136 534.825 412.46 550.597C415.688 565.536 422.359 579.516 431.941 591.424C449.008 612.653 473.193 625.288 500.123 628.323C547.51 633.019 590.881 600.604 603.76 555.572C607.513 542.449 605.327 527.487 613.731 516.556C618.682 510.116 627.877 505.803 635.885 505.194C643.97 504.621 651.945 507.324 658.015 512.695C664.267 518.268 668.573 527.225 668.667 535.648C668.838 571.364 653.549 606.962 630.1 633.583C624.773 639.63 617.637 645.539 610.359 637.874C609.791 637.287 609.322 636.61 608.97 635.872C605.091 627.541 617.751 617.065 622.2 610.846C637.355 589.663 647.612 565.18 648.634 538.906C649.12 526.413 637.197 521.233 628.917 530.04C627.587 531.419 626.743 544.609 626.294 547.532C612.374 638.175 505.373 681.443 433.413 621.739C408.792 601.641 393.365 572.424 390.654 540.757C389.756 530.615 390.009 520.278 390.018 510.085L390.051 468.064L390.047 420.179C390.047 405.458 389.34 389.356 392.435 375.087C396.592 355.919 405.085 338.71 417.853 323.851C440.741 297.216 467.638 283.264 502.348 280.212Z"/><path fill="#2C3236" d="M504.579 239.219C522.153 238.729 539.685 241.194 556.443 246.512C597.677 259.803 631.98 288.863 651.868 327.351C662.244 347.801 668.132 370.231 669.139 393.141C669.406 398.64 668.773 405.543 669.169 410.566C671.541 440.692 660.538 467.434 632.882 481.858C627.134 484.856 620.568 487.763 614.465 490.825C601.018 497.57 589.984 510.585 587.8 525.783C586.414 535.912 586.853 542.962 583.367 553.224C576.407 573.709 562.828 590.356 543.466 600.254C525.564 609.406 501.773 609.871 482.873 603.95C464.145 598.082 447.146 581.263 438.524 563.795C434.829 556.448 432.464 548.505 431.539 540.333C430.638 532.37 430.923 521.929 430.926 513.661L430.941 472.605L430.91 422.363C430.905 413.087 430.583 401.251 431.255 392.146C431.643 386.212 432.836 380.358 434.801 374.745C441.782 354.572 456.486 337.995 475.681 328.656C494.042 319.7 515.23 318.491 534.49 325.3C555.176 332.835 572.028 348.268 581.349 368.213C584.724 375.425 587.098 384.472 576.788 387.709C574.183 388.527 571.277 387.757 568.856 386.641C564.148 382.729 563.125 377.006 560.109 371.987C548.013 351.86 524.621 338.948 501.122 342.195C485.812 344.244 472.002 352.455 462.889 364.927C457.198 372.596 453.368 381.484 451.702 390.888C450.494 398.111 450.823 408.588 450.823 416.236L450.825 453.468L450.789 506.122C450.804 515.305 450.438 529.411 451.74 538.086C454.069 553.602 462.615 567.501 475.41 576.582C488.056 585.589 503.795 589.125 519.078 586.392C544.05 582.111 561.007 562.267 566.45 538.185C567.278 534.521 567.21 528.505 567.646 524.506C569.105 511.427 574.654 499.141 583.504 489.401C589.062 483.168 595.615 477.899 602.897 473.81C616.867 465.851 631.186 462.572 640.823 448.838C644.099 444.183 646.413 438.92 647.628 433.358C650.701 419.505 648.925 387.666 646.34 373.493C639.844 338.374 618.008 304.395 588.25 284.443C549.419 258.409 508.026 253.091 463.989 267.467C460.006 268.811 456.099 270.369 452.285 272.136C447.081 274.581 441.358 278.118 435.873 279.367C430.253 280.647 423.938 273.457 425.028 268.046C426.419 261.144 435.361 257.443 441.005 254.74C461.185 245.08 482.311 240.264 504.579 239.219Z"/><path fill="#ED763B" d="M483.371 409.183C487.516 408.481 494.609 409.435 498.107 411.77C518.694 425.476 539.654 438.436 560.262 452.143C571.38 459.537 571.065 474.392 560.632 482.199C552.514 488.275 542.586 493.409 533.754 498.561C521.435 505.36 508.942 514.812 496.187 520.391C491.468 522.455 486.601 523.618 481.669 521.545C478.302 520.13 474.514 517.414 473.176 513.869C471.72 510.009 471.855 430.441 472.448 421.464C472.543 420.029 472.726 418.767 473.358 417.461C475.538 412.955 478.711 410.795 483.371 409.183ZM491.511 501.505C500.008 495.861 517.924 485.433 527.133 480.597C534.314 476.405 542.866 471.631 549.697 466.99C530.365 454.613 510.016 442.291 491.197 429.303C491.706 453.051 491.388 477.662 491.511 501.505Z"/><path fill="#2C3236" d="M357.714 515.971C361.862 516.121 366.838 518.15 368.157 522.474C369.929 528.288 368.728 535.307 369.523 541.322C370.484 548.589 371.796 555.883 373.606 562.987C382.642 599.816 406.32 631.36 439.162 650.319C457.145 660.889 479.184 668.039 499.873 669.703C519.862 671.311 541.017 667.57 559.651 660.241C564.319 658.404 568.439 655.997 573.389 654.842C577.345 655.853 580.334 657.013 582.567 660.765C583.918 662.999 584.267 665.698 583.528 668.202C582.212 672.515 579.19 674.081 575.53 676.024C497.208 710.206 408.548 680.055 368.151 604.764C363.588 596.292 359.742 587.453 356.651 578.339C351.901 563.946 349.597 548.701 348.849 533.586C348.394 524.377 349.193 520.013 357.714 515.971Z"/><path fill="#2C3236" d="M390.666 297.138C395.564 297.339 399.476 298.991 401.499 303.923C402.436 306.209 402.169 309.73 400.98 311.896C397.883 317.535 393.099 322.296 389.573 327.687C380.605 342.174 374.523 358.644 371.391 375.373C368.195 392.451 369.2 409.772 369.215 427.014L368.965 459.564C368.972 466.077 369.424 472.597 369.271 479.1C369.122 485.394 366.389 487.555 360.898 489.469C358.342 489.49 355.806 489.231 353.551 487.916C351.563 486.758 350.282 484.749 349.723 482.552C347.934 475.518 349.273 455.847 349.273 447.566C349.275 402.18 345.17 364.061 369.083 322.936C373.536 315.278 381.924 299.43 390.666 297.138Z"/><path fill="#2C3236" d="M484.987 756.225C497.195 755.278 502.6 757.267 511.206 765.95L511.306 756.459L517.456 756.618C517.152 768.465 517.055 780.316 517.163 792.166C517.165 797.869 517.25 803.525 516.983 809.239C516.053 829.127 498.452 833.969 481.847 831.333C475.248 830.285 469.74 828.255 464.52 823.958C465.475 822.157 466.44 820.36 467.414 818.569L472.323 821.28C482.285 826.132 497.259 828.724 506.203 820.164C511.556 815.04 510.936 805.735 510.953 798.776C509.214 800.354 507.293 802.149 505.404 803.523C496.315 810.135 481.925 810.111 472.633 803.837C466.871 799.99 462.982 793.906 461.91 787.062C459.191 770.743 468.771 758.701 484.987 756.225ZM490.287 802.529C496.566 801.754 502.787 800.209 506.592 794.81C517.159 779.818 508.28 761.979 490.006 762.212C476.917 763.128 467.268 769.907 468.547 784.327C468.994 789.728 471.703 794.687 476.005 797.983C480.557 801.492 484.845 802.184 490.287 802.529Z"/><path fill="#2C3236" d="M593.544 734.943L600.079 734.938C599.95 745.689 599.992 756.443 600.203 767.193C605.333 761.15 609.994 757.152 618.234 756.241C646.183 753.151 658.124 784.929 640.949 804.609C627.837 816.484 611.704 813.64 600.362 800.978C600.435 804.373 600.294 807.964 600.209 811.376C598.077 811.323 596.01 811.401 593.881 811.461C594.343 786.273 593.778 760.137 593.544 734.943ZM624.602 805.32C632.276 804.14 638.72 798.921 641.469 791.66C644.219 784.4 642.847 776.221 637.879 770.255C632.912 764.289 625.117 761.458 617.478 762.846C605.889 764.953 598.143 775.98 600.091 787.597C602.04 799.214 612.96 807.11 624.602 805.32Z"/><path fill="#2C3236" d="M532.962 523.167C555.593 521.057 544.273 548.003 533.793 557.324C526.085 564.255 515.906 567.784 505.561 567.113C494.206 566.445 486.144 560.806 478.827 552.538C474.327 546.397 467.025 532.269 477.537 527.519C492.114 520.931 490.903 543.066 503.279 545.754C512.865 547.837 521.825 544.08 525.003 534.139C526.773 528.505 527.483 525.93 532.962 523.167Z"/><path fill="#2C3236" d="M737.032 756.209C757.074 755.642 765.403 767.645 766.06 786.081C754.632 785.814 743.082 786.123 731.642 786.027C727.522 785.993 723.212 786.089 719.123 786.52C722.483 803.047 734.399 808.989 750.262 804.663C753.822 802.811 754.827 802.303 757.907 799.764L762.404 803.492C746.537 818.837 715.797 812.557 712.836 788.808C710.67 771.436 719.017 758.436 737.032 756.209ZM719.405 781.012L743.75 781.026L760.247 781.056C756.79 768.661 750.699 760.979 736.776 762.074C725.472 764.401 721.411 769.808 719.405 781.012Z"/><path fill="#2C3236" d="M321.937 756.193L322.806 756.121C348.214 754.271 350.24 769.59 349.207 790.111C348.895 796.296 349.18 804.696 349.46 810.982L343.046 811.004L342.888 804.009L340.705 805.731C329.954 814.289 312.062 815.34 304.693 801.837C301.066 788.737 308.827 780.447 321.55 780.172C328.72 780.017 335.906 780.317 343.056 780.54C341.97 764.706 335.532 760.019 318.977 763.098C314.768 763.88 311.518 766.244 308.275 768.909L305.077 763.28C310.949 758.958 314.767 757.247 321.937 756.193ZM313.089 788.956C306.449 800.716 315.658 807.206 327.13 806.393C333.721 805.326 337.039 803.808 341.063 798.223C341.64 797.432 342.185 796.619 342.696 795.785L342.917 785.311C337.532 784.984 332.721 785.115 327.338 785.219C321.103 785.492 318.262 785.206 313.089 788.956Z"/><path fill="#2C3236" d="M407.457 756.169C424.78 755.269 433.087 764.516 433.031 781.503C432.998 791.447 433.019 801.557 432.991 811.513L426.823 811.452C427.178 803.884 426.563 795.426 427.043 788.031C428.198 770.227 421.567 758.169 401.336 763.456C388.167 768.835 389.707 781.915 389.75 793.659L389.843 811.386L383.501 811.418L383.448 756.523L389.748 756.527C389.81 759.466 389.643 762.853 389.559 765.823C395.105 759.616 399.129 757.33 407.457 756.169Z"/><path fill="#2C3236" d="M257.54 743.967L263.917 744.044C263.863 748.193 263.872 752.342 263.947 756.491C266.957 756.452 279.291 755.629 280.529 757.882C280.547 759.39 280.8 760.7 279.942 761.828C276.56 762.433 268.159 762.033 263.993 762.129C263.932 770.405 262.421 794.957 265.108 801.148C266.034 803.282 267.602 805.153 269.854 805.931C272.971 807.007 276.504 806.026 279.357 804.659C280.109 804.3 280.718 803.963 281.536 803.765C281.695 803.727 281.858 803.709 282.019 803.681C283.307 805.713 284.802 807.049 283.402 809.201C274.443 814.081 258.803 813.025 257.809 800.454C256.833 788.126 257.457 774.584 257.497 762.091C254.456 762.06 247.689 762.922 246.932 758.972C249.234 755.909 254.126 756.51 257.523 756.532C257.586 752.344 257.592 748.156 257.54 743.967Z"/><path fill="#2C3236" d="M677.195 735.033L683.796 735.157C683.463 741.665 683.811 751.907 683.825 758.614C683.951 776.205 683.932 793.798 683.769 811.389L677.539 811.505C676.949 786.393 677.456 760.317 677.195 735.033Z"/><path fill="#2C3236" d="M552.651 756.471L559.106 756.485C558.947 774.797 559.056 793.11 559.431 811.418C557.184 811.208 555.118 811.37 552.866 811.466C552.949 800.363 552.971 789.26 552.932 778.157C552.928 771.623 553.159 762.816 552.651 756.471Z"/><path fill="#2C3236" d="M554.214 733.666C555.945 733.038 557.88 733.395 559.273 734.599C560.666 735.802 561.299 737.665 560.928 739.469C560.557 741.272 559.24 742.734 557.485 743.291C554.848 744.127 552.026 742.701 551.135 740.081C550.245 737.461 551.613 734.61 554.214 733.666Z"/></svg>